<svg width="476" height="260" viewBox="0 0 476 260" fill="none" xmlns="http://www.w3.org/2000/svg">
<circle cx="45.5" cy="216.5" r="4.5" fill="#4AE03D"/>
<circle cx="100.5" cy="181.5" r="4.5" fill="#4AE03D"/>
<circle cx="155.5" cy="140.5" r="4.5" fill="#4AE03D"/>
<circle cx="210.5" cy="166.5" r="4.5" fill="#4AE03D"/>
<circle cx="265.5" cy="126.5" r="4.5" fill="#4AE03D"/>
<circle cx="320.5" cy="182.5" r="4.5" fill="#4AE03D"/>
<circle cx="377.5" cy="89.5" r="4.5" fill="#4AE03D"/>
<circle cx="430.5" cy="20.5" r="4.5" fill="#4AE03D"/>
<line x1="45.4742" y1="216.149" x2="100.474" y2="182.149" stroke="#4AE03D" stroke-width="2"/>
<line x1="99.4" y1="182.2" x2="155.4" y2="140.2" stroke="#4AE03D" stroke-width="2"/>
<line x1="209.58" y1="166.907" x2="155.58" y2="141.907" stroke="#4AE03D" stroke-width="2"/>
<line x1="209.426" y1="165.181" x2="266.426" y2="125.181" stroke="#4AE03D" stroke-width="2"/>
<line x1="320.274" y1="183.688" x2="266.274" y2="126.688" stroke="#4AE03D" stroke-width="2"/>
<line x1="320.145" y1="182.481" x2="377.145" y2="88.4815" stroke="#4AE03D" stroke-width="2"/>
<line x1="431.793" y1="20.6092" x2="378.793" y2="89.6092" stroke="#4AE03D" stroke-width="2"/>
<path d="M40.2928 231.909V235.459C40.2903 235.949 40.0716 236.207 39.6739 236.207C39.2985 236.207 39.0549 235.973 39.0475 235.568H37.9761C37.9711 236.585 38.697 237.07 39.6192 237.07C40.6508 237.07 41.3543 236.446 41.3568 235.459V231.909H40.2928ZM43.1242 237L43.502 235.839H45.339L45.7168 237H46.8703L45.1153 231.909H43.7282L41.9707 237H43.1242ZM43.7754 234.999L44.4019 233.072H44.4416L45.068 234.999H43.7754ZM51.7412 231.909H50.6698V235.111H50.625L48.4276 231.909H47.483V237H48.5593V233.796H48.5966L50.8115 237H51.7412V231.909Z" fill="black"/>
<path d="M93.6339 237H94.7102V234.897H96.7809V234.01H94.7102V232.797H97.0046V231.909H93.6339V237ZM97.7286 237H101.169V236.113H98.805V234.897H100.983V234.01H98.805V232.797H101.159V231.909H97.7286V237ZM102.934 231.909H101.739L103.496 237H104.883L106.638 231.909H105.445L104.212 235.777H104.165L102.934 231.909Z" fill="black"/>
<path d="M147.325 231.909V237H148.369V233.674H148.411L149.729 236.975H150.439L151.757 233.686H151.799V237H152.843V231.909H151.516L150.114 235.33H150.054L148.652 231.909H147.325ZM154.608 237L154.985 235.839H156.822L157.2 237H158.354L156.599 231.909H155.212L153.454 237H154.608ZM155.259 234.999L155.885 233.072H155.925L156.551 234.999H155.259ZM158.966 237H160.043V235.195H160.828L161.793 237H162.981L161.9 235.021C162.479 234.773 162.799 234.268 162.799 233.572C162.799 232.56 162.131 231.909 160.975 231.909H158.966V237ZM160.043 234.33V232.789H160.769C161.39 232.789 161.691 233.065 161.691 233.572C161.691 234.077 161.39 234.33 160.774 234.33H160.043Z" fill="black"/>
<path d="M204.091 237L204.469 235.839H206.306L206.684 237H207.837L206.082 231.909H204.695L202.938 237H204.091ZM204.742 234.999L205.369 233.072H205.408L206.035 234.999H204.742ZM208.45 237H210.625C211.768 237 212.377 236.403 212.377 235.593C212.377 234.84 211.838 234.385 211.259 234.358V234.308C211.788 234.189 212.178 233.813 212.178 233.214C212.178 232.451 211.612 231.909 210.488 231.909H208.45V237ZM209.526 236.12V234.768H210.428C210.946 234.768 211.266 235.066 211.266 235.486C211.266 235.869 211.005 236.12 210.404 236.12H209.526ZM209.526 234.039V232.779H210.344C210.821 232.779 211.092 233.025 211.092 233.393C211.092 233.796 210.764 234.039 210.324 234.039H209.526ZM213.078 237H214.154V235.195H214.94L215.904 237H217.092L216.011 235.021C216.59 234.773 216.911 234.268 216.911 233.572C216.911 232.56 216.242 231.909 215.086 231.909H213.078V237ZM214.154 234.33V232.789H214.88C215.501 232.789 215.802 233.065 215.802 233.572C215.802 234.077 215.501 234.33 214.885 234.33H214.154Z" fill="black"/>
<path d="M260.358 231.909V235.459C260.355 235.949 260.137 236.207 259.739 236.207C259.363 236.207 259.12 235.973 259.112 235.568H258.041C258.036 236.585 258.762 237.07 259.684 237.07C260.716 237.07 261.419 236.446 261.422 235.459V231.909H260.358ZM265.456 231.909V235.123C265.456 235.705 265.048 236.125 264.422 236.125C263.798 236.125 263.388 235.705 263.388 235.123V231.909H262.312V235.215C262.312 236.329 263.152 237.072 264.422 237.072C265.687 237.072 266.532 236.329 266.532 235.215V231.909H265.456ZM271.676 231.909H270.605V235.111H270.56L268.363 231.909H267.418V237H268.494V233.796H268.532L270.747 237H271.676V231.909Z" fill="black"/>
<path d="M316.946 231.909V235.459C316.943 235.949 316.724 236.207 316.327 236.207C315.951 236.207 315.708 235.973 315.7 235.568H314.629C314.624 236.585 315.35 237.07 316.272 237.07C317.304 237.07 318.007 236.446 318.01 235.459V231.909H316.946ZM322.044 231.909V235.123C322.044 235.705 321.636 236.125 321.01 236.125C320.386 236.125 319.976 235.705 319.976 235.123V231.909H318.9V235.215C318.9 236.329 319.74 237.072 321.01 237.072C322.275 237.072 323.12 236.329 323.12 235.215V231.909H322.044ZM324.006 237H327.265V236.113H325.082V231.909H324.006V237Z" fill="black"/>
<path d="M369.421 237L369.799 235.839H371.636L372.014 237H373.167L371.412 231.909H370.025L368.268 237H369.421ZM370.072 234.999L370.699 233.072H370.739L371.365 234.999H370.072ZM376.916 233.555H378.01C377.871 232.548 376.983 231.839 375.833 231.839C374.488 231.839 373.451 232.809 373.451 234.46C373.451 236.07 374.421 237.07 375.855 237.07C377.14 237.07 378.057 236.257 378.057 234.917V234.276H375.927V235.086H377.021C377.006 235.717 376.576 236.118 375.86 236.118C375.052 236.118 374.542 235.513 374.542 234.45C374.542 233.391 375.072 232.792 375.85 232.792C376.404 232.792 376.78 233.077 376.916 233.555ZM383.544 234.455C383.544 232.789 382.51 231.839 381.16 231.839C379.803 231.839 378.776 232.789 378.776 234.455C378.776 236.113 379.803 237.07 381.16 237.07C382.51 237.07 383.544 236.12 383.544 234.455ZM382.453 234.455C382.453 235.533 381.941 236.118 381.16 236.118C380.377 236.118 379.868 235.533 379.868 234.455C379.868 233.376 380.377 232.792 381.16 232.792C381.941 232.792 382.453 233.376 382.453 234.455Z" fill="black"/>
<path d="M427.43 233.373H428.461C428.446 232.466 427.701 231.839 426.567 231.839C425.451 231.839 424.633 232.456 424.638 233.381C424.636 234.131 425.165 234.561 426.025 234.768L426.58 234.907C427.134 235.041 427.442 235.2 427.445 235.543C427.442 235.916 427.089 236.17 426.542 236.17C425.983 236.17 425.58 235.911 425.546 235.402H424.504C424.531 236.503 425.319 237.072 426.555 237.072C427.798 237.072 428.528 236.478 428.531 235.546C428.528 234.698 427.89 234.248 427.005 234.049L426.547 233.94C426.105 233.838 425.734 233.674 425.742 233.309C425.742 232.98 426.033 232.739 426.56 232.739C427.074 232.739 427.39 232.973 427.43 233.373ZM429.255 237H432.695V236.113H430.331V234.897H432.509V234.01H430.331V232.797H432.685V231.909H429.255V237ZM433.347 232.797H434.906V237H435.97V232.797H437.528V231.909H433.347V232.797Z" fill="black"/>
</svg>
